# xmcd CD database file
#
# Track frame offsets:
#	150
#	13083
#	27767
#	39705
#	51073
#	64711
#	79504
#	91384
#	104941
#	117538
#	129999
#	143988
#	156525
#	167838
#	178279
#	189695
#	204595
#	217411
#	233181
#	251369
#
# Disc length: 3500 seconds
#
# Revision: 0
# Processed by: cddbd v1.5.2PL0 Copyright (c) Steve Scherf et al.
# Submitted via: CDex 1.51
#
DISCID=2f0daa14
DTITLE=Django Reinhart - Anthology CD2
DYEAR=2008
DGENRE=Jazz
TTITLE0=Begin the beguine
TTITLE1=Nuages
TTITLE2=Rythme futur
TTITLE3=Fantaisie sur une dame Norvegienne
TTITLE4=Vendredi 13
TTITLE5=Mabel
TTITLE6=Libesfreund
TTITLE7=Swing de Paris
TTITLE8=Oiseaux des iles
TTITLE9=All og me
TTITLE10=Swing 41
TTITLE11=Swing 42
TTITLE12=Belleville
TTITLE13=Douce ambiance
TTITLE14=Fleur d Ennui
TTITLE15=Manoire de mes reves
TTITLE16=Just one of those things
TTITLE17=Anniversary song
TTITLE18=Bolero
TTITLE19=Louise
EXTD=YEAR: 2008
EXTT0=
EXTT1=
EXTT2=
EXTT3=
EXTT4=
EXTT5=
EXTT6=
EXTT7=
EXTT8=
EXTT9=
EXTT10=
EXTT11=
EXTT12=
EXTT13=
EXTT14=
EXTT15=
EXTT16=
EXTT17=
EXTT18=
EXTT19=
PLAYORDER=
